<svg id="Insta" xmlns="http://www.w3.org/2000/svg" width="21.036" height="21.036" viewBox="0 0 21.036 21.036">
  <path id="Tracé_81" data-name="Tracé 81" d="M17.916,0H3.12A3.128,3.128,0,0,0,0,3.12v14.8a3.128,3.128,0,0,0,3.12,3.12h14.8a3.128,3.128,0,0,0,3.12-3.12V3.12A3.128,3.128,0,0,0,17.916,0Zm-7.4,16.585a6.067,6.067,0,1,1,6.067-6.067A6.067,6.067,0,0,1,10.518,16.585ZM17.53,4.821a1.315,1.315,0,1,1,1.315-1.315A1.315,1.315,0,0,1,17.53,4.821Z" fill="#fff"/>
  <circle id="Ellipse_23" data-name="Ellipse 23" cx="4.045" cy="4.045" r="4.045" transform="translate(6.473 6.473)" fill="#fff"/>
</svg>
