<svg xmlns="http://www.w3.org/2000/svg" width="309.624" height="170.493" viewBox="0 0 309.624 170.493">
  <g id="Logo" transform="translate(-804.376 -25)">
    <text id="La_nuit" data-name="La nuit" transform="translate(960 70)" font-size="43" font-family="Heebo-Black, Heebo" font-weight="800" letter-spacing="-0.05em"><tspan x="-75" y="0">LA NUIT</tspan></text>
    <g id="Logo_One_piece" transform="translate(800.781 74.957)">
      <g id="g4204" transform="translate(65.806 5.4)">
        <g id="g4219">
          <path id="path3614" d="M65.314,7.5A12.814,12.814,0,0,0,52.5,20.314V63.883a12.814,12.814,0,1,0,25.629,0V20.314A12.814,12.814,0,0,0,65.314,7.5Zm0,6.407a3.844,3.844,0,0,1,3.844,3.844V66.446a3.844,3.844,0,1,1-7.689,0V17.751A3.844,3.844,0,0,1,65.314,13.907Z" transform="translate(-52.5 -4.809)"/>
          <path id="path3638" d="M84.47,5.4l-8.97,5v66.89h8.97V18.342a3.844,3.844,0,1,1,7.689,0V77.288h8.97V20.905A12.9,12.9,0,0,0,84.47,8.652Z" transform="translate(-46.027 -5.4)"/>
          <path id="path3640" d="M112.554,7.5A12.814,12.814,0,0,0,99.74,20.314V36.973H94.094L99.74,43.38v20.5a12.814,12.814,0,0,0,25.629,0V57.075l-8.97-2.723V66.446a3.844,3.844,0,1,1-7.689,0V43.38h11.533V36.973H108.71V17.751a3.844,3.844,0,1,1,7.689,0V29.6l8.97-2.723V8.9l-3.284,2.883A12.747,12.747,0,0,0,112.554,7.5Z" transform="translate(-40.794 -4.809)"/>
        </g>
        <g id="g4229" transform="translate(95.586 0.008)">
          <path id="path3681" d="M141.71,5.406l-8.97,5.006V43.969h-5.646l5.646,6.407v26.91h8.97V52.338a12.786,12.786,0,0,0,16.659-12.214V20.9A12.9,12.9,0,0,0,141.71,8.65V5.406Zm3.844,9.09a3.844,3.844,0,0,1,3.844,3.844V42.688a3.844,3.844,0,1,1-7.689,0V18.341A3.844,3.844,0,0,1,145.554,14.5Z" transform="translate(-127.094 -5.406)"/>
          <path id="path3686" d="M153.5,7.5V20.314h8.97V7.5Zm0,13.976V76.7h8.97V26.481l-8.97-5.006Z" transform="translate(-119.662 -4.817)"/>
          <path id="path3677" d="M179.554,7.5A12.814,12.814,0,0,0,166.74,20.314V36.973h-5.646l5.646,6.407v20.5a12.814,12.814,0,1,0,25.628,0V57.075l-8.97-2.723V66.446a3.844,3.844,0,1,1-7.689,0V43.38h11.533V36.973H175.71V17.751a3.844,3.844,0,1,1,7.689,0V29.6l8.97-2.723V8.9l-3.284,2.883A12.747,12.747,0,0,0,179.554,7.5Z" transform="translate(-117.525 -4.817)"/>
          <path id="path3668" d="M201.314,7.5A12.814,12.814,0,0,0,188.5,20.314V63.883a12.814,12.814,0,1,0,25.628,0V57.075l-8.97-2.723V66.446a3.844,3.844,0,1,1-7.689,0V17.751a3.844,3.844,0,1,1,7.689,0V29.6l8.97-2.723V8.9l-3.284,2.883A12.747,12.747,0,0,0,201.314,7.5Z" transform="translate(-109.812 -4.817)"/>
          <path id="path3679" d="M225.554,7.5A12.814,12.814,0,0,0,212.74,20.314V36.973h-5.646l5.646,6.407v20.5a12.814,12.814,0,1,0,25.629,0V57.075l-8.97-2.723V66.446a3.844,3.844,0,1,1-7.689,0V43.38h11.533V36.973H221.71V17.751a3.844,3.844,0,1,1,7.689,0V29.6l8.97-2.723V8.9l-3.284,2.883A12.747,12.747,0,0,0,225.554,7.5Z" transform="translate(-104.58 -4.817)"/>
        </g>
      </g>
      <path id="path3715" d="M34.892,7c-3.8,0-4.728,2.563-8.329,2.563-1.077,0-1.855.067-2.563-.641a92.912,92.912,0,0,1,0,20.5c.708.708,1.486.641,2.563.641,3.6,0,4.528-2.563,8.329-2.563s4.42,2.563,7.689,2.563,4.8-2.563,7.048-2.563a9.982,9.982,0,0,1,3.844.641V7.641A9.982,9.982,0,0,0,49.629,7c-2.249,0-3.78,2.563-7.048,2.563S38.693,7,34.892,7Z" transform="translate(5.286 0.45)"/>
      <g id="g4119" transform="translate(5.219 30.471)">
        <path id="path3751" d="M22.024,25.943a3.186,3.186,0,0,0-5.4,2.936,3.194,3.194,0,1,0,1.407,5.377c.04-.039.05-.1.087-.14l5.4,5.588c-.042.036,33.278,34.61,33.238,34.649A3.2,3.2,0,0,0,61.2,78.962a3.169,3.169,0,0,0,.9-2.986,3.2,3.2,0,1,0-1.435-5.406c-.04.039-33.431-34.467-33.468-34.427l-5.4-5.588c.042-.036.1-.044.143-.082a3.2,3.2,0,0,0,.079-4.53Z" transform="translate(-3.142 -24.965)" fill="#fff" stroke="#000" stroke-width="1"/>
        <path id="path3767" d="M59.67,25.943a3.186,3.186,0,0,1,5.4,2.936,3.194,3.194,0,1,1-1.407,5.377c-.04-.039-.05-.1-.087-.14l-5.4,5.588c.042.036-33.278,34.61-33.238,34.649a3.2,3.2,0,0,1-4.451,4.609,3.169,3.169,0,0,1-.9-2.986,3.2,3.2,0,1,1,1.435-5.406c.04.039,33.431-34.467,33.468-34.427l5.4-5.588c-.042-.036-.1-.044-.143-.082a3.2,3.2,0,0,1-.079-4.53Z" transform="translate(-2.298 -24.965)" fill="#fff" stroke="#000" stroke-width="1"/>
        <g id="g4152" transform="translate(29.193 46.016)">
          <path id="path3854" d="M28.344,68.625a9.349,9.349,0,0,0,18.34,0c-.6.222-1.047.582-1.682.761a28.508,28.508,0,0,1-14.977,0C29.391,69.207,28.942,68.847,28.344,68.625Z" transform="translate(-27.903 -58.694)" fill="#fff" stroke="#000" stroke-width="1"/>
          <path id="path3860" d="M28.2,65.531l-.04.2A9.559,9.559,0,0,0,28,67.413a9.119,9.119,0,0,0,.44,2.082c.6.222,1.047.582,1.682.761a28.507,28.507,0,0,0,14.977,0c.635-.179,1.084-.539,1.682-.761a9.118,9.118,0,0,0,.44-2.082,9.559,9.559,0,0,0-.16-1.682l-.04-.2a20.951,20.951,0,0,1-1.922.881,28.507,28.507,0,0,1-14.977,0,20.951,20.951,0,0,1-1.922-.881Z" transform="translate(-28 -59.565)" fill="#fff" stroke="#000" stroke-width="1"/>
          <path id="path3781" d="M28.156,66.842a20.951,20.951,0,0,0,1.922.881,28.508,28.508,0,0,0,14.977,0,20.951,20.951,0,0,0,1.922-.881l-1.041-5.927L29.2,60.875l-1.041,5.967Z" transform="translate(-27.956 -60.875)" fill="#fff" stroke="#000" stroke-width="1"/>
          <g id="g4170" transform="translate(1.667 0.004)">
            <path id="path3880" d="M29.3,71.4l1.106-10.521" transform="translate(-29.301 -60.878)" fill="none" stroke="#000" stroke-width="1"/>
            <path id="path3878" d="M31.689,72.153l.788-11.27" transform="translate(-28.629 -60.876)" fill="none" stroke="#000" stroke-width="1"/>
            <path id="path3876" d="M33.928,72.5l.405-11.608" transform="translate(-27.998 -60.875)" fill="none" stroke="#000" stroke-width="1"/>
            <path id="path3868" d="M37.161,72.494l-.405-11.6" transform="translate(-27.203 -60.873)" fill="none" stroke="#000" stroke-width="1"/>
            <path id="path3870" d="M39.484,72.149,38.7,60.9" transform="translate(-26.656 -60.872)" fill="none" stroke="#000" stroke-width="1"/>
            <path id="path3872" d="M41.941,71.392,40.839,60.9" transform="translate(-26.054 -60.871)" fill="none" stroke="#000" stroke-width="1"/>
          </g>
        </g>
        <g id="g4182" transform="translate(18.3 21.99)">
          <path id="path3725" d="M59.625,43.286c-3.208-.37-6.532-.683-10.011-.881-3.6-.205-7.35-.28-11.172-.28s-7.528.075-11.132.28c-2.357.134-4.57.386-6.808.6a20.186,20.186,0,0,0-1,6.007,20.5,20.5,0,1,0,41.006,0,20.238,20.238,0,0,0-.881-5.726Z" transform="translate(-19.5 -42.125)" fill="#fff" stroke="#000" stroke-width="1"/>
          <path id="path3731" d="M44.812,71.473a5.766,5.766,0,1,1-5.766-5.766,5.766,5.766,0,0,1,5.766,5.766Z" transform="translate(-27.513 -59.459)" fill="#1e2326" stroke="#000" stroke-width="1"/>
          <path id="path3733" d="M44.812,71.473a5.766,5.766,0,1,1-5.766-5.766,5.766,5.766,0,0,1,5.766,5.766Z" transform="translate(-8.932 -59.459)" fill="#1e2326" stroke="#000" stroke-width="1"/>
          <path id="path3735" d="M14.94,23.828a1.922,1.922,0,1,1-1.922-1.922,1.922,1.922,0,0,1,1.922,1.922Z" transform="translate(7.486 -1.563)" fill="#1e2326" stroke="#000" stroke-width="1"/>
        </g>
        <g id="g4190" transform="translate(0 8.374)">
          <path id="path3720" d="M39.783,31.5A20.448,20.448,0,0,0,20.281,46c2.237-.215,4.451-.467,6.808-.6,3.6-.205,7.31-.28,11.132-.28s7.568.075,11.172.28c3.479.2,6.8.511,10.011.881A20.479,20.479,0,0,0,39.783,31.5Z" transform="translate(-0.98 -31.5)" fill="#d71617" stroke="#000" stroke-width="1"/>
          <path id="path3742" d="M44.022,39.5a124.226,124.226,0,0,0-38.8,6.167,126.42,126.42,0,0,0,17.62,4.245,56.974,56.974,0,0,1,42.367,0,126.42,126.42,0,0,0,17.62-4.245A124.227,124.227,0,0,0,44.022,39.5Z" transform="translate(-5.219 -29.249)" fill="#d71617" stroke="#000" stroke-width="1"/>
        </g>
      </g>
      <g id="g4089" transform="translate(12.036 72.891)">
        <path id="path3988" d="M34.815,74.99c-7.345.105-8.163.456-12.054,3.873-2.538,2.228-4.614,4.857-4.614,5.841,0,1.929-1.822,2.154-5.554.684-2.081-.82-1.759-1.535,2.816-6.25,7.229-7.449,18.083-12.465,20.057-9.271a2.127,2.127,0,0,0,2.584.415c1-.477.851,4.65-3.235,4.708Zm16.213-.449c-2.361,1.97-6.211-3.609-5.079-4.445,1.177-.869,10.641-1.162,10.641-.174,0,.49,2.311.923,5.135.962,3.8.053,7.874,1.719,15.7,6.427C103.352,92.917,130.1,99.8,164.229,99.661c27.852-.116,39.248-3.605,64.071-19.618,28.265-18.233,50.556-25.67,60.632-20.23a14.818,14.818,0,0,0,6.743,1.256c2.169-.14,6.643.939,9.942,2.4,5.213,2.306,5.827,2.97,4.7,5.08-1.734,3.241-4.217,4.666-4.845,2.782a7.156,7.156,0,0,0-3.08-2.9c-2.277-1.219-2.473-1.063-1.7,1.358,1.078,3.4-1.3,6.456-5.011,6.456-3.776,0-5.866-2.356-5.866-6.614,0-3.049-.715-3.731-5.173-4.931C274.623,62,255.5,69.253,232.084,84.63c-25.041,16.443-40.794,21.193-69.4,20.924-9.368-.088-19.916-.591-23.44-1.118s-9.105-1.33-12.4-1.786c-13.972-1.93-36.886-11.307-51.668-21.144l-7.689-5.116-.649,3.449c-1.12,5.95-10.243,4.928-10.243-1.148,0-2.421-4.085-5.383-5.562-4.151Zm-13.66-2.785c-.694.005-1.281,1.046-1.281,1.357s.748.94,1.281.565C38.623,72.8,38,71.752,37.368,71.756Z" transform="translate(-10.307 -58.069)" fill="#a69659"/>
        <path id="path3986" d="M36.262,71.049c4.2-3.327,3.443,3.862-1.237,3.873-5.193.057-7.837.591-9.737,1.836-1.727,1.131-3.789,1.656-4.583,1.165-.862-.533-1.088-.318-.561.535.485.785.142,2.748-.763,4.363s-1.721,3.108-1.814,3.318-1.713-.005-3.6-.478l-3.43-.861,2.824-3.006c1.553-1.653,3.406-2.647,4.117-2.207.76.47.894.154.326-.765-1.167-1.887,3.042-5.425,5.443-4.576.918.324,1.315.019.884-.679-.747-1.208,3.709-3.508,8.778-4.531,1.658-.334,2.143.089,1.631,1.425-.584,1.521.091,1.88,1.72.59Zm16.622,2.582c-1.9,1.015-5.208-.4-3.753-1.378s1.087-1-1.6-.706c-.878.1-1.165-.313-1.165-.971,0-1.075,2.808-1.508,5.9-.906.668.13,4.409.531,8.314.892,5.5.508,9.177,1.95,16.337,6.412,18.294,11.4,38.087,18.126,63.835,21.685,26.856,3.713,52.168.783,69.838-8.082,12.158-6.1,12.052-6.057,11.05-4.436a1.488,1.488,0,0,0,.293,2.059c.623.385,1.065-.584.982-2.154-.1-1.975.536-2.8,2.078-2.679,1.226.1,1.943-.287,1.594-.852s1.4-2.287,3.894-3.826c3.646-2.253,4.9-2.494,6.415-1.234,1.155.958,1.886,1.049,1.886.234a2.274,2.274,0,0,0-1.594-1.863c-2.178-.726,16.011-10.705,24.423-13.4,5.918-1.895,6.975-1.937,8.062-.319,1,1.483,1.175,1.34.877-.7-.333-2.28.461-2.606,7.2-2.953,4.193-.216,9.341.344,11.533,1.255a14.828,14.828,0,0,0,6.34,1.247,16.624,16.624,0,0,1,5.559.4c2.786.7,2.966,1.067,1.463,2.987-1.517,1.937-1.474,2,.372.56,1.522-1.188,3.007-1.279,5.486-.337,3.3,1.255,3.338,1.386,1.29,4.513-2.128,3.248-4.378,4.267-4.378,1.984,0-.68-1.241-1.9-2.757-2.712-2.377-1.272-2.643-1.177-1.927.688,1.221,3.183-1.382,7.1-4.716,7.1-3.882,0-5.978-2.318-5.978-6.612,0-3.013-.755-3.763-5.1-5.066C275.211,61.554,256.7,68.651,231.12,85.1c-15.541,9.993-21.757,12.969-35.215,16.862-13.134,3.8-42.287,4.357-62.839,1.2-8.457-1.3-19.125-3.665-23.706-5.259-10.017-3.487-27.933-12.35-35.88-17.75l-5.766-3.919-.649,3.479c-1.2,6.444-10.243,4.852-10.243-1.8,0-1.676-.611-3.047-1.357-3.047s-.965-.634-.486-1.409c.557-.9-.2-.838-2.093.177Zm103.887,29.424a1.281,1.281,0,1,0-1.281,1.281A1.285,1.285,0,0,0,156.772,103.055Zm20.5-.641c0-1.057-.227-1.922-.5-1.922s-.836.865-1.241,1.922-.179,1.922.5,1.922S177.274,103.472,177.274,102.415Zm12.814-1.922a1.325,1.325,0,0,0-1.357-1.281c-.746,0-1,.577-.565,1.281s1.046,1.281,1.357,1.281S190.089,101.2,190.089,100.492Zm-64.071-2c0-.311-.577-.565-1.281-.565a1.325,1.325,0,0,0-1.281,1.357c0,.746.577,1,1.281.565S126.017,98.805,126.017,98.495Zm-5.126-.565a1.281,1.281,0,1,0-1.281,1.281A1.285,1.285,0,0,0,120.892,97.93Zm-5.126-1.357c0-.746-.577-1-1.281-.565s-1.281,1.046-1.281,1.357.577.565,1.281.565A1.325,1.325,0,0,0,115.766,96.572Zm-3.844-1.206a1.281,1.281,0,1,0-1.281,1.281A1.285,1.285,0,0,0,111.922,95.367Zm-3.844-2c0-.311-.577-.565-1.281-.565a1.325,1.325,0,0,0-1.281,1.357c0,.746.577,1,1.281.565S108.078,93.68,108.078,93.369Zm-3.844-1.281c0-.311-.577-.565-1.281-.565a1.325,1.325,0,0,0-1.281,1.357c0,.746.577,1,1.281.565S104.233,92.4,104.233,92.087Zm-5.126-1.281c0-1.1-.586-1.636-1.3-1.193a1.475,1.475,0,0,0-.565,2c1.1,1.777,1.867,1.446,1.867-.8Zm-3.844-1.922c0-.746-.577-1-1.281-.565S92.7,89.365,92.7,89.676s.577.565,1.281.565A1.325,1.325,0,0,0,95.263,88.884Zm-3.844-1.206A1.325,1.325,0,0,0,90.062,86.4c-.746,0-1,.577-.565,1.281s1.046,1.281,1.357,1.281S91.419,88.383,91.419,87.678ZM87.575,85.04c0-.746-.577-1-1.281-.565s-1.281,1.046-1.281,1.357.577.565,1.281.565A1.325,1.325,0,0,0,87.575,85.04Zm-7.048-3.769c-.436-.7-1.046-1.281-1.357-1.281s-.565.577-.565,1.281a1.325,1.325,0,0,0,1.357,1.281C80.708,82.552,80.963,81.976,80.527,81.271Zm-9.611-6.407a1.325,1.325,0,0,0-1.357-1.281c-.746,0-1,.577-.565,1.281s1.046,1.281,1.357,1.281S70.916,75.569,70.916,74.864ZM37.6,71.66c-.423-.089-1.281,1.046-1.281,1.357a.939.939,0,0,0,1.281.565A1.072,1.072,0,0,0,37.6,71.66ZM249.808,68.8c-.426-.426-.729.331-.673,1.682.062,1.493.365,1.8.774.774a2.578,2.578,0,0,0-.1-2.456h0ZM299.784,62.4c-.426-.426-.729.331-.673,1.682.061,1.493.365,1.8.774.774a2.578,2.578,0,0,0-.1-2.456h0Z" transform="translate(-10.539 -57.973)" fill="#a58e34"/>
        <path id="path3984" d="M35.807,74.907c-5.725,0-8.527.546-10.518,1.85-1.727,1.131-3.789,1.656-4.583,1.165-.862-.533-1.088-.318-.561.535.485.785.142,2.748-.763,4.363s-1.721,3.108-1.814,3.318-1.713-.005-3.6-.478l-3.43-.861,2.824-3.006c1.553-1.653,3.406-2.647,4.117-2.207.76.47.894.154.326-.765-1.074-1.738,1.472-4.034,7.987-7.2,6.22-3.023,9.637-3.476,8.748-1.161-.584,1.521-.239,1.639,1.72.59,3.926-3.835,2.539,4.948-.455,3.858Zm15.605-.51c-2.331,1.441-3.736-1.167-2.28-2.144s1.011-1.406-1.6-.706c-.723.194-1.18-.149-1.18-.807,0-1.075,2.823-1.672,5.918-1.07.668.13,4.409.531,8.314.892,5.5.508,9.177,1.95,16.337,6.412a151.892,151.892,0,0,0,60.988,21.188c9.1,1.144,12.36,2.019,11.909,3.193a2.019,2.019,0,0,0,.6,2.375c.674.417,1.225-.142,1.225-1.24,0-1.637,1.794-2,9.931-2.005,12.938-.01,32.639-3.02,41.523-6.343,3.874-1.45,15.074-7.63,24.888-13.735,27.326-17,40.565-22.525,41.987-17.532.448,1.571.6,1.291.441-.825-.225-3.043.142-3.223,7.337-3.594,4.166-.215,9.343.342,11.5,1.237a17.858,17.858,0,0,0,7.174,1.287c1.785-.187,5.975.867,9.312,2.343,6.019,2.663,6.051,2.708,4.005,5.831-2.487,3.8-2.408,3.788-5.638.558-2.113-2.113-2.913-2.29-4.35-.961-.969.9-1.462,2.122-1.1,2.726s1.162.316,1.768-.641c1.561-2.464,1.409-.15-.186,2.831-1.483,2.771-6.314,3.3-8.669.941-.846-.846-1.538-3.129-1.538-5.074,0-3.013-.755-3.763-5.1-5.066C275.212,61.554,256.7,68.651,231.12,85.1c-15.541,9.993-21.757,12.969-35.215,16.862-13.134,3.8-42.287,4.357-62.839,1.2-8.457-1.3-19.125-3.665-23.706-5.259-10.017-3.487-27.933-12.35-35.88-17.75l-5.766-3.919-.649,3.479c-1.185,6.351-10.243,4.877-10.243-1.666,0-3.014-3.077-5.09-5.408-3.65Zm105.359,28.658a1.281,1.281,0,1,0-1.281,1.281A1.285,1.285,0,0,0,156.772,103.055Zm16.659,0a1.281,1.281,0,1,0-1.281,1.281A1.285,1.285,0,0,0,173.43,103.055Zm3.844-.716c0-1.1-.577-1.641-1.281-1.206a2.748,2.748,0,0,0-1.281,2,1.249,1.249,0,0,0,1.281,1.206C176.7,104.337,177.275,103.438,177.275,102.339Zm-33.958-.565c.436-.7-.107-1.281-1.206-1.281s-2,.577-2,1.281a1.249,1.249,0,0,0,1.206,1.281A2.748,2.748,0,0,0,143.317,101.774Zm4.485,0a1.281,1.281,0,1,0-1.281,1.281A1.285,1.285,0,0,0,147.8,101.774Zm33.317,0a1.281,1.281,0,1,0-1.281,1.281A1.285,1.285,0,0,0,181.119,101.774Zm8.97-1.357a1.249,1.249,0,0,0-1.281-1.206c-.7,0-1.281.9-1.281,2s.577,1.641,1.281,1.206A2.748,2.748,0,0,0,190.089,100.417Zm-55.742.076c.436-.7-.107-1.281-1.206-1.281s-2,.577-2,1.281a1.249,1.249,0,0,0,1.206,1.281A2.748,2.748,0,0,0,134.347,100.492Zm4.485,0a1.281,1.281,0,1,0-1.281,1.281A1.285,1.285,0,0,0,138.832,100.492Zm55.1-.716c0-1.1-.586-1.636-1.3-1.193a1.475,1.475,0,0,0-.565,2C193.164,102.358,193.933,102.027,193.933,99.776Zm-64.071-.4c0-.617-1.452-1.121-3.227-1.121s-3.539.5-3.92,1.121,1.071,1.121,3.227,1.121S129.862,99.988,129.862,99.371Zm67.916-.16a1.281,1.281,0,1,0-1.281,1.281A1.285,1.285,0,0,0,197.777,99.211Zm-76.886-1.281a1.281,1.281,0,1,0-1.281,1.281A1.285,1.285,0,0,0,120.892,97.929Zm82.011,0a1.281,1.281,0,1,0-1.281,1.281A1.285,1.285,0,0,0,202.9,97.929Zm-86.5-1.281c.436-.7-.107-1.281-1.206-1.281s-2,.577-2,1.281a1.249,1.249,0,0,0,1.206,1.281A2.748,2.748,0,0,0,116.407,96.648Zm90.34-.716c0-1.1-.577-1.641-1.281-1.206a2.748,2.748,0,0,0-1.281,2,1.249,1.249,0,0,0,1.281,1.206C206.171,97.929,206.747,97.03,206.747,95.932Zm-94.825-.565a1.281,1.281,0,1,0-1.281,1.281A1.285,1.285,0,0,0,111.922,95.367Zm-3.844-2c0-.311-.577-.565-1.281-.565a1.325,1.325,0,0,0-1.281,1.357c0,.746.577,1,1.281.565S108.078,93.68,108.078,93.369Zm103.155.716a2.748,2.748,0,0,0-2-1.281,1.249,1.249,0,0,0-1.206,1.281c0,.7.9,1.281,2,1.281S211.668,94.79,211.232,94.085Zm-107-2c0-.311-.9-.565-2-.565s-1.636.586-1.193,1.3C101.774,94.008,104.233,93.44,104.233,92.087ZM215.4,90.775c-1.221-1.221-3.669.757-2.759,2.229.541.875,1.258.853,2.178-.067.754-.754,1.016-1.727.581-2.162Zm-116.289.031c0-1.1-.586-1.636-1.3-1.193a1.475,1.475,0,0,0-.565,2c1.1,1.777,1.867,1.446,1.867-.8Zm120.454-1.281c0-1.1-.577-1.641-1.281-1.206a2.748,2.748,0,0,0-1.281,2,1.249,1.249,0,0,0,1.281,1.206C218.985,91.522,219.562,90.623,219.562,89.525Zm-124.3-.565a1.281,1.281,0,1,0-1.281,1.281A1.285,1.285,0,0,0,95.263,88.96Zm-3.844-1.281A1.325,1.325,0,0,0,90.062,86.4c-.746,0-1,.577-.565,1.281s1.046,1.281,1.357,1.281S91.419,88.383,91.419,87.678Zm131.987-.32c0-1.5-1.867-1.127-2.4.481-.264.793.168,1.225.961.961S223.406,87.886,223.406,87.358ZM87.575,85.04c0-.746-.577-1-1.281-.565s-1.281,1.046-1.281,1.357.577.565,1.281.565A1.325,1.325,0,0,0,87.575,85.04Zm140.248-1.315a1.427,1.427,0,1,0-.464,1.964A1.431,1.431,0,0,0,227.823,83.724ZM85.012,83.117c0-.311-.577-.565-1.281-.565a1.325,1.325,0,0,0-1.281,1.357c0,.746.577,1,1.281.565S85.012,83.428,85.012,83.117Zm146.655-1.956a1.427,1.427,0,1,0-.464,1.964A1.431,1.431,0,0,0,231.667,81.161Zm-151.14.109c-.436-.7-1.046-1.281-1.357-1.281s-.565.577-.565,1.281a1.325,1.325,0,0,0,1.357,1.281C80.708,82.552,80.963,81.976,80.527,81.271Zm153.9-3.5c-.426-.426-.729.331-.673,1.682.062,1.493.365,1.8.774.774a2.578,2.578,0,0,0-.1-2.456h0ZM74.12,77.427c-.436-.7-1.046-1.281-1.357-1.281s-.565.577-.565,1.281a1.325,1.325,0,0,0,1.357,1.281C74.3,78.708,74.555,78.131,74.12,77.427Zm164.663-.716c0-1.1-.586-1.636-1.3-1.193a1.475,1.475,0,0,0-.565,2C238.014,79.293,238.783,78.961,238.783,76.71ZM24.135,74.879c.449-.726-.065-.941-1.206-.5-2.22.852-2.626,1.77-.783,1.77a2.727,2.727,0,0,0,1.989-1.267Zm46.781-.015a1.325,1.325,0,0,0-1.357-1.281c-.746,0-1,.577-.565,1.281s1.046,1.281,1.357,1.281S70.916,75.569,70.916,74.864Zm172.352,0c-.436-.7-1.046-1.281-1.357-1.281s-.565.577-.565,1.281a1.325,1.325,0,0,0,1.357,1.281C243.449,76.145,243.7,75.569,243.268,74.864Zm3.79-2.651c-1.1-1.777-1.867-1.446-1.867.8,0,1.1.586,1.636,1.3,1.193A1.475,1.475,0,0,0,247.058,72.213Zm48.108,1.294c0-.746-.577-1-1.281-.565S292.6,73.988,292.6,74.3s.577.565,1.281.565A1.325,1.325,0,0,0,295.166,73.507ZM37.6,71.66c-.624-.069-1.281,1.046-1.281,1.357s.749.925,1.281.565C38.617,72.9,38.157,71.722,37.6,71.66ZM249.808,68.8c-.426-.426-.729.331-.673,1.682.062,1.493.365,1.8.774.774a2.578,2.578,0,0,0-.1-2.456h0Zm44.076,1.5c0-.311-.577-.565-1.281-.565a1.325,1.325,0,0,0-1.281,1.357c0,.746.577,1,1.281.565S293.884,70.614,293.884,70.3Zm-40.231-2.781c-.426-.426-.729.331-.673,1.682.062,1.493.365,1.8.774.774a2.578,2.578,0,0,0-.1-2.456h0Zm54.007-1.095c-1.221-1.221-3.669.757-2.759,2.229.541.875,1.258.853,2.178-.067.754-.754,1.016-1.727.581-2.162ZM258,67.175a1.325,1.325,0,0,0-1.357-1.281c-.746,0-1,.577-.565,1.281s1.046,1.281,1.357,1.281S258,67.88,258,67.175Zm35.239,0c-.436-.7-1.046-1.281-1.357-1.281s-.565.577-.565,1.281a1.325,1.325,0,0,0,1.357,1.281C293.425,68.457,293.679,67.88,293.243,67.175Zm-32.036-1.281c-.436-.7-1.046-1.281-1.357-1.281s-.565.577-.565,1.281a1.325,1.325,0,0,0,1.357,1.281C261.389,67.175,261.643,66.6,261.208,65.894Zm36.013-3.5c-.426-.426-.729.331-.673,1.682.062,1.493.365,1.8.774.774a2.578,2.578,0,0,0-.1-2.456Zm2.563,0c-.426-.426-.729.331-.673,1.682.062,1.493.365,1.8.774.774a2.578,2.578,0,0,0-.1-2.456h0Zm4.352,2.14c0-.746-.577-1-1.281-.565s-1.281,1.046-1.281,1.357.577.565,1.281.565A1.325,1.325,0,0,0,304.135,64.537Z" transform="translate(-10.539 -57.973)" fill="#887430"/>
        <path id="path3982" d="M34.759,70.077c4.452.741,1.889,7.926-3.2,3.268-.97-.887-.6-1.143.961-.593,1.233.434,2.242.231,2.242-.452s-.865-1.241-1.922-1.241-1.922-.481-1.922-1.068.865-1.068,1.922-1.068S34.759,69.443,34.759,70.077Zm16.332,4.387c-2.369,1.464-3.692-1.195-2.236-2.171s1.082-1.042-1.6-.706c-.774.1-1.479-.128-1.479-.706s.588-1.2,1.8-1.377c2.859-.42,3.87-.046,3.945,1.456.061,1.215.35,1.41.725.487.428-1.052,2.9-1.323,7.867-.864,8.456.781,9.384,1.191,8.414,3.72-.4,1.035-.132,1.881.59,1.881A1.969,1.969,0,0,0,70.852,75c.235-.653,4.175,1.073,8.756,3.837,8.635,5.208,27.018,13.038,34.278,14.6,2.886.621,4.165,1.628,4.165,3.281,0,3.029,2.069,4.39,3,1.971a1.877,1.877,0,0,0-.827-2.454c-.841-.342-.482-.668.8-.723,1.731-.075,2.128.532,1.546,2.365-.593,1.868-.069,2.6,2.156,3.029,2.243.429,2.029.569-.905.588a30,30,0,0,1-6.14-.57c-1.594-.414-2.057-1.348-1.515-3.055.557-1.756.167-2.459-1.365-2.459-1.381,0-1.883.685-1.408,1.922.982,2.56.393,2.474-9.836-1.435-7.226-2.761-8.674-3.785-8.156-5.766.412-1.574-.042-2.409-1.309-2.409-1.172,0-1.656.739-1.223,1.867.594,1.547.177,1.621-2.434.431-1.733-.789-3-2.29-2.822-3.335a2.348,2.348,0,0,0-1.478-2.528c-1.278-.445-1.557.022-.953,1.6.684,1.784-.353,1.524-5.242-1.311a107.983,107.983,0,0,1-9.268-5.985c-2.006-1.549-3.348-1.926-3.649-1.024-.335,1.005-1.051.95-2.421-.188-1.641-1.362-1.86-1.22-1.4.908.3,1.387,1.285,2.36,2.19,2.162s1.4.378,1.1,1.281c-.737,2.237-5.826,2.829-8.1.943a6.5,6.5,0,0,1-1.852-4.446c0-3.038-3.083-5.087-5.452-3.623Zm96.434,28.63c0-1.41-.577-2.563-1.281-2.563s-1.281.865-1.281,1.922c0,1.268-1.268,1.922-3.724,1.922-3.093,0-3.611-.434-3.054-2.563.369-1.41,1.161-2.563,1.762-2.563s.76.865.354,1.922c-.479,1.248.033,1.922,1.459,1.922s1.938-.674,1.459-1.922c-.55-1.434.2-1.922,2.947-1.922,3.053,0,3.569.439,3.014,2.563-.456,1.745-.039,2.563,1.307,2.563a2.963,2.963,0,0,0,2.564-2.242c.441-1.688.623-1.529.735.641.117,2.261-.543,2.883-3.055,2.883C148.378,105.657,147.524,104.974,147.524,103.095Zm8.586.047c.375-1.435,1.174-2.609,1.774-2.609s.76.865.354,1.922-.1,1.922.681,1.922,1.419-.865,1.419-1.922.559-1.922,1.241-1.922.943.776.579,1.725c-.463,1.207.542,1.76,3.349,1.839,2.986.085,3.831-.356,3.305-1.725-.388-1.012-.147-1.839.535-1.839s1.241.865,1.241,1.922c0,2.816,2.153,2.346,2.934-.641.535-2.045,1.665-2.528,5.6-2.388,3.036.108,3.806.389,2.007.734-1.859.357-2.789,1.34-2.563,2.709.307,1.859-1.23,2.2-11.39,2.516-11.269.352-11.718.261-11.063-2.242ZM177,102.454c0-1.057-.577-1.922-1.281-1.922s-1.281.865-1.281,1.922.577,1.922,1.281,1.922S177,103.511,177,102.454Zm4.355.851c.766-1.239,5.426-1.107,6.725.191.484.484-.98.88-3.253.88S180.988,103.894,181.352,103.3Zm-52.408-3.414c0-1.762.531-3.026,1.181-2.81,1.686.562,1.873,6.014.207,6.014C129.568,103.095,128.944,101.653,128.944,99.891Zm5.034.641c0-1.41.687-2.563,1.528-2.563.9,0,1.251,1.058.857,2.563-.369,1.41-1.056,2.563-1.528,2.563S133.978,101.941,133.978,100.532Zm55.479.065c-.378-1.445-.165-2.628.474-2.628s1.161.865,1.161,1.922.644,1.922,1.431,1.922,1.135-1.13.761-2.563c-.43-1.645-.039-2.563,1.092-2.563,1.04,0,1.46.788,1.024,1.922-.406,1.057-.1,1.922.681,1.922s1.419-1.153,1.419-2.563.559-2.563,1.241-2.563.909.865.5,1.922c-.43,1.12-.012,1.938,1,1.961,2.665.06-1.285,2.055-6.1,3.083-3.342.713-4.111.422-4.685-1.775ZM112.41,95.2c.628-1.016.047-1.256-1.847-.761-1.52.4-2.763.138-2.763-.576s-.817-.985-1.816-.6a2.011,2.011,0,0,1-2.554-1.226c-.406-1.057-1.318-1.564-2.028-1.125-2.317,1.432-1.366,2.814,2.874,4.174,5.685,1.824,7.065,1.843,8.134.114ZM98.963,89.9c-1.645-1.645-3.313-.374-2.095,1.6a1.589,1.589,0,0,0,2.162.581C99.905,91.538,99.883,90.821,98.963,89.9ZM92.423,87c0-.311-.9-.565-2-.565s-1.636.586-1.193,1.3C89.964,88.922,92.423,88.354,92.423,87Zm-7.689-3.844c0-.311-.577-.565-1.281-.565a1.325,1.325,0,0,0-1.281,1.357c0,.746.577,1,1.281.565S84.734,83.468,84.734,83.157ZM63.625,81.366c-.417-.674-1.7-.864-2.849-.423q-2.1.8-1.165-.7c.51-.825.316-1.5-.431-1.5-1.522,0-1.805,1.687-.5,2.99C60.014,83.073,64.473,82.739,63.625,81.366ZM80.89,81.31a1.281,1.281,0,1,0-1.281,1.281A1.285,1.285,0,0,0,80.89,81.31Zm-5.675-3.3c-1.175-1.175-2.5-1.773-2.942-1.329s.3,1.618,1.661,2.611C77.124,81.63,77.977,80.777,75.215,78.015Zm-13-2.5c1.358-1.027,2.048-2.29,1.532-2.805s-1.474-.089-2.129.948c-1.043,1.65-1.2,1.645-1.231-.037-.035-1.709-.177-1.709-1.281,0-2.611,4.04-1.013,5.014,3.11,1.895Zm-4.391-2.4c0-.277-.865-.836-1.922-1.241s-1.922-.179-1.922.5.865,1.241,1.922,1.241S57.824,73.4,57.824,73.118ZM184.685,99.967c0-.311.577-.921,1.281-1.357s1.281-.181,1.281.565a1.325,1.325,0,0,1-1.281,1.357C185.262,100.532,184.685,100.277,184.685,99.967Zm17.569-3.279c-.369-1.41-.148-2.563.491-2.563s1.161.865,1.161,1.922.644,1.922,1.431,1.922,1.139-1.116.782-2.48.048-2.747.9-3.074c.927-.356,1.513.51,1.46,2.16C208.325,99.424,203.406,101.093,202.254,96.687Zm8.382-2.883c-.175-2.135,1.082-3.641,4.846-5.8,4.144-2.382,5.083-2.559,5.083-.961A1.947,1.947,0,0,0,222.487,89c2.25,0,2.49-1.482.554-3.418-1.212-1.212,3.894-5.087,16.28-12.357.827-.486,1.381-.063,1.281.978-.1,1.008.392,1.723,1.085,1.588s1.094-1.23.89-2.433c-.262-1.548,1.889-3.329,7.353-6.087,8.914-4.5,9.078-4.535,9.078-1.977,0,1.057.616,1.922,1.368,1.922.772,0,1.023-1.086.577-2.493-.656-2.065-.009-2.639,3.772-3.349,2.51-.471,4.879-1.367,5.265-1.992,1.034-1.673,15.639-1.383,18.9.375a14.818,14.818,0,0,0,6.743,1.256c2.169-.14,6.635.935,9.923,2.39,5.929,2.623,5.962,2.671,3.917,5.792-2.5,3.819-2.384,3.812-5.852.344-1.8-1.8-2.984-2.261-3.31-1.281a2.337,2.337,0,0,1-2.05,1.522c-.848,0-1.64,1.29-1.759,2.867-.165,2.191.056,2.426.939,1,.635-1.028,1.532-1.491,1.994-1.03,1.461,1.461-.74,3.572-3.722,3.572-3.86,0-5.947-2.33-5.947-6.639,0-2.732-.747-3.751-3.2-4.368-2-.5-3.2-1.711-3.2-3.228a2.245,2.245,0,0,0-2.563-2.424c-1.41,0-2.563.638-2.563,1.419s.865,1.087,1.922.681,1.922-.179,1.922.5c0,2.206-4.919,1.315-5.524-1-.495-1.893-.611-1.843-.748.32-.127,2.016-2.072,3.144-9.119,5.287-8.772,2.667-8.957,2.673-8.957.245,0-1.391-.585-2.117-1.334-1.655s-.983,1.929-.554,3.279.294,2.455-.3,2.455c-1.4,0-17.165,9.151-31.646,18.367-6.274,3.994-11.771,7.261-12.214,7.261s-.913-1.3-1.043-2.883Zm4.8-1.709c0-2.263-2.759-1.869-3.551.507-.279.837.406,1.522,1.522,1.522A2.035,2.035,0,0,0,215.44,92.1Zm4.165-2.349c.176-.646-.4-1.415-1.281-1.709s-1.6.427-1.6,1.6c0,2.17,2.3,2.255,2.883.107Zm8.65-5.192c0-1.146.751-1.594,1.922-1.144,1.207.463,1.922-.013,1.922-1.281s.715-1.745,1.922-1.281c1.893.726,2.664-.93,1.142-2.452-.95-.95-10.753,5.369-10.753,6.93,0,.611.865,1.111,1.922,1.111A1.908,1.908,0,0,0,228.254,84.554Zm11.212-7.408c-.6-1.814-2.665-1.615-3.31.32-.235.7.534,1.281,1.709,1.281S239.76,78.027,239.466,77.146Zm9.611-4.313c2.5-.882,2.913-2.489.952-3.7-.71-.439-1.622.068-2.028,1.125a2.011,2.011,0,0,1-2.554,1.226c-1.126-.432-1.816.126-1.816,1.469,0,1.277.658,1.859,1.6,1.419.881-.411,2.611-1.1,3.844-1.538Zm45.791,1.11c-.043-2.1-2.466-4.665-3.435-3.632-.567.6-.306,1.358.579,1.674s1.284,1.1.885,1.747-.114,1.172.633,1.172,1.348-.432,1.337-.961Zm-40.853-5.826c-1.645-1.645-3.313-.374-2.095,1.6a1.589,1.589,0,0,0,2.162.581c.875-.541.853-1.258-.067-2.178Zm53.438-2.337c-2.04-1.261-4.213.681-2.985,2.667.664,1.075,1.388,1.05,2.768-.1C308.732,67.11,308.775,66.6,307.453,65.779Zm-12.908.046c.531-2.031.958-2.261,1.783-.961s1.089,1.186,1.1-.532c.022-2.475-1-2.777-3.668-1.085A1.957,1.957,0,0,0,293,65.988c.653,1.057.487,1.3-.477.708-.814-.5-1.479-.3-1.479.443C291.044,69.6,293.832,68.552,294.545,65.825Zm8.021-2.488c-2.818-1.782-3.836-1.516-3.814.995.017,1.916.2,1.963,1.262.32,1.035-1.6,1.245-1.506,1.262.577.016,1.99.344,2.175,1.611.908S304.088,64.3,302.566,63.337Zm-38.432,1.315a1.325,1.325,0,0,0-1.357-1.281c-.746,0-1,.577-.565,1.281s1.046,1.281,1.357,1.281S264.134,65.357,264.134,64.652Zm6.407-2.075c0-.9-1.057-1.253-2.563-.859-1.41.369-2.563,1.144-2.563,1.723s1.153.965,2.563.859,2.563-.881,2.563-1.723Zm19.493.328c.32.608.5.565.4-.1-.36-2.313-3.23-2.193-3.211.133.015,1.815.271,1.952,1.126.6.609-.961,1.369-1.249,1.689-.641h0Zm-15.649-.74a2.748,2.748,0,0,0-1.281-2c-.7-.436-1.281.107-1.281,1.206s.577,2,1.281,2A1.249,1.249,0,0,0,274.385,62.165Zm11.026-2.291c-.426-.426-.729.331-.673,1.682.061,1.493.365,1.8.774.774a2.578,2.578,0,0,0-.1-2.456h0ZM12.75,85.385c-1.88-.763-1.714-1.354,1.338-4.76,3.774-4.212,9.725-8.667,13.3-9.958,4.278-1.543,2.406,3.565-2.219,6.056a15.678,15.678,0,0,0-6.079,6.058c-1.656,3.742-2.592,4.126-6.343,2.6Zm6.685-6.691c1.263-1.263,2.632-1.96,3.043-1.548s.747.114.747-.661,1.2-1.788,2.659-2.253,2.377-1.126,2.032-1.472c-1.81-1.81-14.06,8.149-12.71,10.334.488.789,1.021.631,1.366-.4a13.727,13.727,0,0,1,2.862-3.995Z" transform="translate(-10.261 -58.012)" fill="#6e6850"/>
        <path id="path3980" d="M152.2,102.924c.369-1.41.891-2.563,1.161-2.563s.491,1.153.491,2.563-.523,2.563-1.161,2.563S151.827,104.334,152.2,102.924Zm3.844,0c.369-1.41,1.161-2.563,1.762-2.563s.76.865.354,1.922-.1,1.922.681,1.922,1.419-.865,1.419-1.922.559-1.922,1.241-1.922.943.776.579,1.725c-.463,1.207.542,1.76,3.349,1.839,2.986.085,3.831-.356,3.305-1.725-.388-1.012-.147-1.839.535-1.839s1.241.865,1.241,1.922c0,2.673,2.272,2.417,2.841-.32.379-1.823.614-1.7,1.255.641.77,2.811.54,2.883-9.222,2.883-9.381,0-9.969-.161-9.341-2.563Zm-17.569-1.281c0-1.41.559-2.563,1.241-2.563s.909.865.5,1.922c-.479,1.248.033,1.922,1.459,1.922s1.938-.674,1.459-1.922c-.435-1.134-.015-1.922,1.024-1.922,1.131,0,1.522.918,1.092,2.563s-1.748,2.563-3.724,2.563C139.326,104.206,138.472,103.489,138.472,101.643Zm9.071.747c-.056-1.351.247-2.108.673-1.682a2.578,2.578,0,0,1,.1,2.456c-.409,1.022-.713.719-.774-.774Zm29.611-.427c.256-1.344,1.706-2.327,3.618-2.452,3.017-.2,3.028-.175.209.422-1.92.407-2.732,1.28-2.283,2.452.384,1,.1,1.82-.637,1.82S176.919,103.2,177.154,101.963Zm4.058,1.362c1.289-1.289,5.954-1.435,5.954-.187,0,.587-1.538,1.067-3.417,1.067s-3.021-.4-2.537-.88Zm-52-3.488c-.374-1.957-.06-2.883.857-2.531,1.529.587,2.057,5.618.59,5.618C130.186,102.924,129.535,101.535,129.21,99.838Zm4.685.524c0-1.41.687-2.563,1.528-2.563.9,0,1.251,1.058.857,2.563-.369,1.41-1.056,2.563-1.528,2.563S133.895,101.771,133.895,100.361Zm55.462,0c-.369-1.41-.215-2.563.342-2.563s1.314,1.153,1.682,2.563.215,2.563-.342,2.563S189.726,101.771,189.357,100.361Zm-68.471-1.22c.36-1.376.283-2.721-.171-2.99s-.248-.381.456-.249,1.122,1.147.926,2.256c-.217,1.233.779,2.233,2.563,2.576,2.443.469,2.32.588-.755.734-3.049.145-3.562-.251-3.019-2.327Zm72.686-.061c0-1.41.559-2.563,1.241-2.563s.909.865.5,1.922-.1,1.922.681,1.922,1.419-1.153,1.419-2.563.559-2.563,1.241-2.563.909.865.5,1.922c-.426,1.111,0,1.96,1,2.012,1.966.1-2.518,2.244-4.989,2.383C194.293,101.6,193.572,100.49,193.572,99.08Zm-77.224.515a2.775,2.775,0,0,1-.076-2.563c.426-1.111-.149-1.8-1.507-1.8-1.426,0-1.938.674-1.459,1.922.406,1.057.137,1.922-.6,1.922s-1.141-1.009-.9-2.243c.62-3.217,5.035-2.768,6.3.641.992,2.682,0,3.875-1.753,2.117Zm86.194-3.078c0-1.41.221-2.563.491-2.563s.793,1.153,1.161,2.563.148,2.563-.491,2.563S202.542,97.927,202.542,96.517Zm-98.029-.594c-2.114-.968-3.062-1.807-2.105-1.864,1-.06,1.427-.917,1-2.026-.884-2.3-.982-2.293,4.275-.46,3.625,1.264,3.891,1.632,1.96,2.713-1.82,1.019-1.909,1.457-.479,2.363,2.715,1.72-.359,1.241-4.652-.725Zm3.2-1.968a1.249,1.249,0,0,0-1.206-1.281,2.748,2.748,0,0,0-2,1.281c-.436.7.107,1.281,1.206,1.281S107.717,94.659,107.717,93.954Zm98.32,1.364c-.357-1.364.009-2.732.812-3.04.84-.322,1.46.731,1.46,2.48,0,3.666-1.371,4-2.272.56Zm4.492-1.956c-.161-1.944.785-3.335,2.936-4.315,2.6-1.184,3.173-1.1,3.173.449,0,1.971,1.522,2.509,2.979,1.052.464-.464.244-1.566-.489-2.449-.923-1.112-.92-1.861.012-2.436.739-.457,1.343.069,1.343,1.167a1.967,1.967,0,0,0,1.922,2c2.25,0,2.49-1.482.555-3.418-.969-.969-.8-1.585.575-2.113,1.327-.509,1.717-.157,1.23,1.111-.452,1.179.094,1.857,1.5,1.857,1.577,0,2.017-.732,1.539-2.562-.368-1.409,0-2.943.812-3.409s1.054-.376.532.2a2.183,2.183,0,0,0,.373,2.643q2.125,2.561-10,8.753c-3.658,1.868-4.165,1.889-4.165.172,0-2.276-2.013-2.6-3.292-.53a1.76,1.76,0,0,0,.673,2.385c1.178.728,1.127,1.123-.209,1.636-1.139.437-1.846-.338-2-2.193Zm-111.493-1.2a2.818,2.818,0,0,0-1.454-3.058c-1.247-.434-1.557.021-1,1.469.443,1.153.2,2.1-.53,2.1-1.661,0-.978-4.123.775-4.678a4.386,4.386,0,0,1,3.032.7c1.359.86,1.424,1.644.288,3.5-1.422,2.329-1.453,2.328-1.11-.035Zm-7.71-1.64c-1.271-.51-1.309-1.081-.163-2.462,1.17-1.41,1.067-1.8-.48-1.8A3.131,3.131,0,0,0,88,87.868c-.391.881-.583.508-.427-.828a2.907,2.907,0,0,0-1.523-3.058c-1.319-.459-1.557.024-.885,1.789.739,1.939.6,2.1-.693.816-1.159-1.15-1.222-1.993-.225-2.99s2.785-.652,6.343,1.225c2.725,1.437,4.172,2.639,3.216,2.67-1.01.033-1.43.862-1,1.979.406,1.057.612,1.877.457,1.821s-1.025-.4-1.935-.765ZM13.852,85.383c-3.358-.878-2.8-2.116,3.572-7.994,4.4-4.058,6.465-5.154,8.49-4.511,1.793.569,2.386.381,1.8-.57-.482-.78-.266-1.419.48-1.419a1.517,1.517,0,0,1,1.357,1.631c0,1.821-8.623,6.878-10.877,6.379-.864-.191-1.337,1.224-1.178,3.524.146,2.114-.109,3.777-.567,3.7s-1.843-.412-3.076-.735Zm2.883-3.972c0-1.513-.363-1.564-1.922-.27a9.854,9.854,0,0,0-1.922,1.865c0,.149.865.27,1.922.27A1.9,1.9,0,0,0,16.736,81.41Zm4.915-4.9c.468.283,1.6-.29,2.5-1.273,1.959-2.119,1.051-2.3-2.377-.461-1.363.73-2.433,2.027-2.377,2.883.076,1.165.264,1.152.75-.053.357-.885,1.032-1.378,1.5-1.1Zm53.66,4.668c-4.128-2.618-5.756-4.407-5.238-5.756.413-1.077,1.242-1.655,1.843-1.284s.766,1.521.369,2.555-.084,1.881.7,1.881A1.364,1.364,0,0,0,74.4,77.285c0-.789.949-.7,2.435.228,1.339.836,2.143,2.283,1.785,3.214s-.06,1.694.662,1.694a2.208,2.208,0,0,0,1.825-1.539c.318-.955.813-1.053,1.3-.259a2.971,2.971,0,0,1-.16,2.817c-.685,1.108-2.626.475-6.94-2.26Zm1.652-1.322a1.325,1.325,0,0,0-1.357-1.281c-.746,0-1,.577-.565,1.281S76.087,81.14,76.4,81.14,76.963,80.563,76.963,79.859Zm155.052,2c0-1.1-.038-2.43-.085-2.959s1.118-1.76,2.589-2.737c2.368-1.572,2.582-1.535,1.87.32-.547,1.426-.119,2.1,1.341,2.1,1.531,0,1.922-.7,1.366-2.455-.429-1.35-.3-2.753.292-3.117s1.045.781,1.013,2.545c-.071,3.885-3.885,6.59-5.042,3.576-.421-1.1-1.373-1.616-2.117-1.157-.943.583-.926,1.35.053,2.53s.992,1.95.062,2.524c-.739.457-1.344-.069-1.344-1.167ZM56.98,80.945c-.548-.886-.357-1.137.474-.623a1.59,1.59,0,0,0,2.2-.443c.443-.716-.094-1.3-1.193-1.3a1.928,1.928,0,0,1-2-1.836c0-2.13-4.432-3.87-6.539-2.568a1.953,1.953,0,0,1-2.555-.878c-1.737-2.743-1.377-3.688,1.405-3.688,1.41,0,2.572.721,2.582,1.6.014,1.172.272,1.2.962.121,1.494-2.348,13.089-.622,13.216,1.967.065,1.327.334,1.5.747.474a2.422,2.422,0,0,1,1.793-1.6c.631,0,.492,1.437-.308,3.194-1.19,2.611-1.8,2.91-3.324,1.643-1.545-1.282-1.774-1.113-1.325.971.3,1.387,1.274,2.364,2.165,2.17s1.232.277.74,1.073c-.61.987-1.291,1.015-2.214.092-.871-.871-2.127-.908-3.622-.108-1.552.831-2.584.748-3.205-.258Zm5.152-5.6c1.358-1.027,2.048-2.29,1.532-2.805s-1.474-.089-2.129.948c-1.043,1.65-1.2,1.645-1.231-.037-.035-1.709-.177-1.709-1.281,0-2.611,4.04-1.013,5.014,3.11,1.895ZM50.053,72.17A1.325,1.325,0,0,0,48.7,70.889c-.746,0-1,.577-.565,1.281s1.046,1.281,1.357,1.281S50.053,72.875,50.053,72.17Zm7.048,0a2.748,2.748,0,0,0-2-1.281A1.249,1.249,0,0,0,53.9,72.17c0,.7.9,1.281,2,1.281S57.536,72.875,57.1,72.17Zm185.58,1.495c-.07-1.879.139-2.408.464-1.174.612,2.321,1.92,2.862,3.383,1.4.464-.464.234-1.577-.51-2.473-1-1.207-.624-2.02,1.456-3.133,2.222-1.189,3.038-1.141,3.907.231,1.791,2.827,1.288,4.352-.588,1.785-1.31-1.791-1.968-1.97-2.727-.742a1.867,1.867,0,0,0,.632,2.628c1.159.716.543,1.572-2.128,2.953-3.7,1.913-3.762,1.889-3.888-1.472Zm51.511.748c.767-2.094-1.518-5.663-2.8-4.378-.547.547-.228,1.467.708,2.045,1.1.678,1.231,1.342.376,1.871-1.352.835-1.973-.575-3.412-7.745-.468-2.33-.243-4.394.53-4.872.84-.519,1.023,0,.49,1.39-.8,2.089-.672,2.093,2.222.067,4.514-3.162,7.549-2.832,6.708.73-.672,2.847-.655,2.851,1.384.32,1.956-2.428,1.991-2.343.676,1.6-.764,2.291-2.075,4.165-2.913,4.165s-1.621,1.29-1.74,2.867c-.165,2.191.056,2.426.939,1,.635-1.028,1.6-1.422,2.149-.875s.145,1.53-.891,2.186c-2.7,1.707-5.109,1.505-4.421-.37Zm.271-8.758c.531-2.031.958-2.261,1.783-.961s1.089,1.186,1.1-.532c.01-1.233-.516-2.243-1.17-2.243-1.541,0-5.217,3.676-5.217,5.217,0,2.333,2.815,1.142,3.5-1.481ZM31.337,73.234c-.623-1.008-.228-1.231,1.206-.681,1.173.45,2.132.26,2.132-.423s-.865-1.241-1.922-1.241-1.922-.564-1.922-1.254c0-.774,1.188-.713,3.1.159,1.825.832,2.824,2.139,2.426,3.176a2.789,2.789,0,0,1-5.022.263Zm273.2-3.49c-1.177-1.3-1.751-3.259-1.3-4.436.952-2.48,1.538-2.531,5.234-.46,2.7,1.511,2.71,1.64.475,4.391C306.732,71.967,306.569,71.986,304.539,69.744Zm2.831-4.135c-2.04-1.261-4.213.681-2.985,2.667.664,1.075,1.388,1.05,2.768-.1C308.649,66.94,308.692,66.426,307.37,65.609ZM254.386,69.7a1.489,1.489,0,0,0-.586-2.011,1.489,1.489,0,0,1-.586-2.011c1.323-2.14,2.5-1.257,2.693,2.012.1,1.761-.365,3.2-1.037,3.2S253.98,70.352,254.386,69.7Zm3.407-3.771c.1-2.171.357-2.569.735-1.123.322,1.233,1.159,2.242,1.86,2.242s.908-1.153.46-2.563c-.609-1.92-.229-2.565,1.515-2.571a16.392,16.392,0,0,0,5.853-1.846c3.265-1.7,3.524-1.656,3.524.649,0,1.368.638,2.487,1.419,2.487s1.087-.865.681-1.922-.137-1.922.6-1.922,1.142,1,.906,2.228c-.534,2.774-4.885,3.833-4.885,1.19q0-1.9-2.563-1.226c-1.41.369-2.563,1.241-2.563,1.939s.865.937,1.922.531,1.922-.319,1.922.193-2.595,1.864-5.766,3l-5.766,2.074Zm6.258-1.443a1.325,1.325,0,0,0-1.357-1.281c-.746,0-1,.577-.565,1.281s1.046,1.281,1.357,1.281S264.051,65.186,264.051,64.482Zm20.076-.854a4.5,4.5,0,0,1-.764-2.883c.066-1.492.381-1.351,1.191.534.942,2.192,1.114,2.238,1.191.32.05-1.233.613-2.242,1.252-2.242s.86,1.153.491,2.563C286.8,64.546,285.637,65.138,284.127,63.627Zm-7.242-2.67c.016-1.774.254-1.873,1.138-.477a1.949,1.949,0,0,0,2.543.885c.784-.484,1.425-.27,1.425.477s-1.153,1.357-2.563,1.357C277.834,63.2,276.873,62.352,276.885,60.958Z" transform="translate(-10.178 -57.842)" fill="#65561b"/>
        <path id="path3978" d="M87.294,87.37a7.7,7.7,0,0,1,1.242-3.2c.683-1.057,1.242-1.345,1.242-.641a7.7,7.7,0,0,1-1.242,3.2C87.853,87.786,87.294,88.075,87.294,87.37Zm-73.4-2.805C11.53,83.947,10.93,82.2,12.7,81.1c.579-.358,2.015.473,3.191,1.847,2.167,2.531,2.006,2.661-2,1.614ZM73.96,79.3a3.3,3.3,0,0,1,.508-2.867c.86-1.391,1.087-1.14.924,1.022C75.158,80.566,74.927,80.864,73.96,79.3ZM60.345,77.194c0-2.854,2.007-3.422,2.217-.628.1,1.361-.354,2.474-1.015,2.474s-1.2-.831-1.2-1.847Zm4.744-1.143c-.361-.94.1-1.709,1.022-1.709s1.383.769,1.022,1.709-.821,1.709-1.022,1.709S65.45,76.99,65.089,76.051Zm4.921.516c-.852-1.379,1.656-3.29,2.807-2.139.423.423.062.769-.8.769s-1.214.577-.779,1.281.5,1.281.151,1.281S70.416,77.223,70.011,76.566ZM34.717,71.428c0-.746-1.009-1.4-2.242-1.458-1.257-.057-1.56-.378-.689-.731,2.232-.906,6.222,1.513,4.377,2.653-.8.492-1.446.283-1.446-.463ZM55.934,70.19c-.395-.639.436-.86,1.847-.491,2.992.782,3.37,1.653.718,1.653a3.291,3.291,0,0,1-2.565-1.162Zm237.906.558c.5-.558.269-2.223-.522-3.7-1.389-2.595-1.467-2.6-2.3-.221s-.888,2.377-1.548-.148a3.483,3.483,0,0,1,1.659-4.077c1.874-1.171,2.207-1.108,1.662.311-.9,2.339,1.737,3.894,3.758,2.217,2.248-1.865,4.889.022,3.377,2.413-.807,1.277-1.2,1.369-1.214.287a1.5,1.5,0,0,0-1.3-1.6c-.7,0-1.281.831-1.281,1.847a3.543,3.543,0,0,1-1.6,2.768c-.881.507-1.19.465-.686-.093Zm13.679-2.92c.832-1.586,2.069-2.883,2.749-2.883,1.82,0,1.541.613-1.513,3.325C306.02,70.7,306.014,70.7,307.519,67.828Z" transform="translate(-10.219 -57.024)" fill="#4a3908"/>
        <path id="path3976" d="M46.953,70.62a2.578,2.578,0,0,1,2.456-.1c1.022.409.719.713-.774.774-1.351.056-2.108-.247-1.682-.673Zm234.153-6.839a2.727,2.727,0,0,1,1.267-1.989c.726-.449.941.065.5,1.206-.852,2.22-1.77,2.626-1.77.783Z" transform="translate(-0.324 -57.066)" fill="#362d07"/>
      </g>
    </g>
  </g>
</svg>
