<svg id="a" xmlns="http://www.w3.org/2000/svg" xmlns:xlink="http://www.w3.org/1999/xlink" width="160" height="156.163" viewBox="0 0 160 156.163">
  <defs>
    <linearGradient id="linear-gradient" x1="0.5" x2="0.5" y2="1.007" gradientUnits="objectBoundingBox">
      <stop offset="0" stop-color="#d2a519"/>
      <stop offset="0" stop-color="#d2a518"/>
      <stop offset="0.18" stop-color="#e5c00b"/>
      <stop offset="0.33" stop-color="#f0d102"/>
      <stop offset="0.45" stop-color="#f5d700"/>
      <stop offset="0.61" stop-color="#f2d400"/>
      <stop offset="0.71" stop-color="#ebcc01"/>
      <stop offset="0.78" stop-color="#dfbe02"/>
      <stop offset="0.85" stop-color="#cdaa05"/>
      <stop offset="0.91" stop-color="#b79108"/>
      <stop offset="0.96" stop-color="#9c720b"/>
      <stop offset="1" stop-color="#82550f"/>
    </linearGradient>
    <linearGradient id="linear-gradient-2" y1="-0.008" y2="0.999" xlink:href="#linear-gradient"/>
  </defs>
  <g id="Groupe_174" data-name="Groupe 174" transform="translate(0 0)">
    <path id="Tracé_1491" data-name="Tracé 1491" d="M159.174,168.14l-3.423-1.073a1.294,1.294,0,0,0-1.6.786l-.487,1.325A46.718,46.718,0,0,1,147.41,179.5a24.778,24.778,0,0,1-5.674,5.565c-1.195.765-1.69.261-1.264-.721.63-1.46,1.859-3.662,2.546-4.879,2.355-4.184,4.792-8.506,4.049-12a7.817,7.817,0,0,0-8.015-6.6,11.028,11.028,0,0,0-4.7,1.082L145.6,137.208a.752.752,0,0,0-.721-1.064l-8.584.391a1.988,1.988,0,0,0-1.725,1.229c-.995,2.359-3.362,7.967-5.886,13.906V117.611c0-8.224-.739-16.864-7.759-20.587h4.683a3.083,3.083,0,0,0,3.08-3.08V68.091a3.083,3.083,0,0,0-3.08-3.08H67.075A3.083,3.083,0,0,0,64,68.091V83.166c-.83-5.548-2.446-9.453-4.992-12.346C54.851,66.1,48.4,64.09,37.448,64.09H27.234c-10.93,0-17.347,1.951-21.456,6.529C1.729,75.142,0,82.2,0,94.231v13a3.083,3.083,0,0,0,3.08,3.08h26c-1.911,4.527-5.413,8.437-11.1,14.219C3.532,139.328,0,147.778,0,167.583v20.244a3.083,3.083,0,0,0,3.08,3.08H61.61a3.083,3.083,0,0,0,3.08-3.08V172.8c.843,5.648,2.489,9.6,5.091,12.5,4.11,4.575,10.526,6.529,21.456,6.529h29.967a1.614,1.614,0,0,0,1.555-1.186l.235-.856a59,59,0,0,1,6.812-14.045c3.037-4.67,5.574-7.085,7.281-8.015.8-.439,1.381-.343.947.582-.578,1.229-1.586,2.95-2.285,4.123-2.528,4.253-5.4,9.075-4.466,13.445a7.961,7.961,0,0,0,7.859,6.529c3.871,0,8.285-2.876,12.772-8.55a53.43,53.43,0,0,0,7.416-12.607l.6-1.586a1.165,1.165,0,0,0-.743-1.521ZM64,160.033a3.07,3.07,0,0,0-2.389-1.138H35c1.26-5.339,3.028-9.062,8.971-15.14,11.677-11.955,18.037-19.823,20.023-32.921v49.2Z" transform="translate(0 -36.248)" fill="#fff"/>
    <g id="Groupe_170" data-name="Groupe 170" transform="translate(0)">
      <path id="Tracé_1492" data-name="Tracé 1492" d="M0,7.524C0,2.507,2.511,0,7.359,0s7.324,2.507,7.324,7.524v9.232c0,5.018-2.511,7.524-7.324,7.524S0,21.773,0,16.756ZM7.359,18.663c.6,0,.869-.269.869-.938V6.555c0-.669-.269-.938-.869-.938-.634,0-.9.269-.9.938V17.729c0,.669.269.938.9.938Z" transform="translate(0 0)" fill="#fff"/>
      <path id="Tracé_1493" data-name="Tracé 1493" d="M42.875,10.931s-.03-.017-.03,0c.1,1.612.222,4,.222,5.756v1.855a.252.252,0,0,0,.252.252h.061a.252.252,0,0,1,.252.252v5.113a.252.252,0,0,1-.252.252H37.362a.252.252,0,0,1-.252-.252V19.046a.252.252,0,0,1,.252-.252h.061a.252.252,0,0,0,.252-.252V6.873a.252.252,0,0,0-.252-.252h-.061a.252.252,0,0,1-.252-.252V1.252A.252.252,0,0,1,37.362,1h8.489a.316.316,0,0,1,.308.248l1.216,5.4c.413,1.851.86,4.092,1.16,5.747,0,.017.03.017.03,0-.1-1.664-.222-4.005-.222-5.313V6.873a.252.252,0,0,0-.252-.252h-.061a.252.252,0,0,1-.252-.252V1.252A.252.252,0,0,1,48.031,1h5.982a.252.252,0,0,1,.252.252V6.365a.252.252,0,0,1-.252.252h-.061a.252.252,0,0,0-.252.252v17.29a.252.252,0,0,1-.252.252h-7.52a.311.311,0,0,1-.3-.248l-1.586-7.511c-.382-1.816-.856-4.123-1.16-5.721Z" transform="translate(-20.988 -0.566)" fill="#fff"/>
      <path id="Tracé_1494" data-name="Tracé 1494" d="M89.369,9.189a.252.252,0,0,1-.252-.252V6.873a.252.252,0,0,0-.252-.252H87.6a.252.252,0,0,0-.252.252V9.845a.252.252,0,0,0,.252.252h3.006a.252.252,0,0,1,.252.252v3.775a.252.252,0,0,1-.252.252H87.6a.252.252,0,0,0-.252.252v3.91a.252.252,0,0,0,.252.252h1.264a.252.252,0,0,0,.252-.252v-3a.252.252,0,0,1,.252-.252h5.448a.252.252,0,0,1,.252.252v8.619a.252.252,0,0,1-.252.252H80.572a.252.252,0,0,1-.252-.252V19.042a.252.252,0,0,1,.252-.252h.061a.252.252,0,0,0,.252-.252V6.873a.252.252,0,0,0-.252-.252h-.061a.252.252,0,0,1-.252-.252V1.252A.252.252,0,0,1,80.572,1H94.817a.252.252,0,0,1,.252.252V8.937a.252.252,0,0,1-.252.252Z" transform="translate(-45.427 -0.566)" fill="#fff"/>
      <path id="Tracé_1495" data-name="Tracé 1495" d="M128.21,1.252A.252.252,0,0,1,128.462,1H136.3c3.48,0,7.159,1.138,7.159,6.79v3.045c0,5.652-3.68,6.79-7.159,6.79h-.817a.252.252,0,0,0-.252.252v.665a.252.252,0,0,0,.252.252h.2a.252.252,0,0,1,.252.252v5.113a.252.252,0,0,1-.252.252h-7.22a.252.252,0,0,1-.252-.252V19.046a.252.252,0,0,1,.252-.252h.061a.252.252,0,0,0,.252-.252V6.873a.252.252,0,0,0-.252-.252h-.061a.252.252,0,0,1-.252-.252Zm7.277,5.365a.252.252,0,0,0-.252.252v4.879a.252.252,0,0,0,.252.252h.647c.6,0,.869-.269.869-.938V7.551c0-.669-.269-.938-.869-.938h-.647Z" transform="translate(-72.512 -0.566)" fill="#fff"/>
      <path id="Tracé_1496" data-name="Tracé 1496" d="M173.425,18.542a.252.252,0,0,0,.252.252h.061a.252.252,0,0,1,.252.252v5.113a.252.252,0,0,1-.252.252h-7.086a.252.252,0,0,1-.252-.252V19.046a.252.252,0,0,1,.252-.252h.061a.252.252,0,0,0,.252-.252V6.873a.252.252,0,0,0-.252-.252h-.061a.252.252,0,0,1-.252-.252V1.252A.252.252,0,0,1,166.652,1h7.086a.252.252,0,0,1,.252.252V6.365a.252.252,0,0,1-.252.252h-.061a.252.252,0,0,0-.252.252V18.538Z" transform="translate(-94.111 -0.566)" fill="#fff"/>
      <path id="Tracé_1497" data-name="Tracé 1497" d="M197.089,9.189a.252.252,0,0,1-.252-.252V6.873a.252.252,0,0,0-.252-.252h-1.264a.252.252,0,0,0-.252.252V9.845a.252.252,0,0,0,.252.252h3.006a.252.252,0,0,1,.252.252v3.775a.252.252,0,0,1-.252.252h-3.006a.252.252,0,0,0-.252.252v3.91a.252.252,0,0,0,.252.252h1.264a.252.252,0,0,0,.252-.252v-3a.252.252,0,0,1,.252-.252h5.448a.252.252,0,0,1,.252.252v8.619a.252.252,0,0,1-.252.252H188.292a.252.252,0,0,1-.252-.252V19.042a.252.252,0,0,1,.252-.252h.061a.252.252,0,0,0,.252-.252V6.873a.252.252,0,0,0-.252-.252h-.061a.252.252,0,0,1-.252-.252V1.252A.252.252,0,0,1,188.292,1h14.245a.252.252,0,0,1,.252.252V8.937a.252.252,0,0,1-.252.252Z" transform="translate(-106.35 -0.566)" fill="#fff"/>
      <path id="Tracé_1498" data-name="Tracé 1498" d="M239.874,16.756c0,5.048-2.376,7.524-7.059,7.524s-7.125-2.511-7.125-7.524V6.555c0-4.583,1.838-6.555,5.052-6.555a3.579,3.579,0,0,1,3.515,1.872c.03.056.13.078.13.013V.686a.252.252,0,0,1,.252-.252h4.979a.252.252,0,0,1,.252.252V9.848a.252.252,0,0,1-.252.252H234.17a.252.252,0,0,1-.252-.252V6.555c0-.669-.269-.938-.869-.938-.634,0-.9.269-.9.938V17.729c0,.669.269.938.9.938.6,0,.869-.269.869-.938V13.7a.252.252,0,0,1,.252-.252h5.448a.252.252,0,0,1,.252.252V16.76Z" transform="translate(-127.644 0)" fill="#fff"/>
      <path id="Tracé_1499" data-name="Tracé 1499" d="M271.319,9.189a.252.252,0,0,1-.252-.252V6.873a.252.252,0,0,0-.252-.252h-1.264a.252.252,0,0,0-.252.252V9.845a.252.252,0,0,0,.252.252h3.006a.252.252,0,0,1,.252.252v3.775a.252.252,0,0,1-.252.252h-3.006a.252.252,0,0,0-.252.252v3.91a.252.252,0,0,0,.252.252h1.264a.252.252,0,0,0,.252-.252v-3a.252.252,0,0,1,.252-.252h5.448a.252.252,0,0,1,.252.252v8.619a.252.252,0,0,1-.252.252H262.522a.252.252,0,0,1-.252-.252V19.042a.252.252,0,0,1,.252-.252h.061a.252.252,0,0,0,.252-.252V6.873a.252.252,0,0,0-.252-.252h-.061a.252.252,0,0,1-.252-.252V1.252A.252.252,0,0,1,262.522,1h14.245a.252.252,0,0,1,.252.252V8.937a.252.252,0,0,1-.252.252Z" transform="translate(-148.333 -0.566)" fill="#fff"/>
    </g>
    <g id="Groupe_173" data-name="Groupe 173" transform="translate(1.846 29.697)">
      <g id="Groupe_171" data-name="Groupe 171" transform="translate(0.921 0.925)">
        <path id="Tracé_1500" data-name="Tracé 1500" d="M41.05,70.49H30.837C11.631,70.49,6.37,76.372,6.37,97.85v13.306H33.009V99.466a2.168,2.168,0,1,1,4.336,0v3.319c0,12.134-3.775,17.121-13.771,27.3-14.158,14.492-17.2,22.273-17.2,41.123v20.553H65.522v-26.47H35.186c1.429-7.238,2.637-11.9,10.413-19.845,14.158-14.5,19.923-22.273,19.923-41.123V97.85c0-11.147-1.49-17.6-4.987-21.569-3.571-4.058-9.4-5.791-19.48-5.791Z" transform="translate(-6.37 -70.49)" fill="url(#linear-gradient)"/>
        <path id="Tracé_1501" data-name="Tracé 1501" d="M183.567,189.259c-.886-4.166,1.234-8.788,3.914-14.645.378-.825.76-1.66,1.147-2.52h-2.09a.931.931,0,0,1-.895-1.186l1.143-4.04a1.633,1.633,0,0,1,1.568-1.186h3.093l3.3-7.259a1.916,1.916,0,0,1,1.742-1.121h7.954a.785.785,0,0,1,.712,1.116l-3.362,7.264h6.321a.931.931,0,0,1,.895,1.186l-1.143,4.04A1.633,1.633,0,0,1,206.3,172.1h-7.359c-1.29,3.176-2.459,5.869-3.415,8.08a71.353,71.353,0,0,0-3.011,7.581,7.715,7.715,0,0,0-.3,1.538c-.035.6.282,1.034,1.277.934,3.389-.339,8.545-5.539,13.324-13.263q1.466-3.382,2.919-6.725c.9-2.068,1.977-4.574,3.11-7.233V122.444c0-12.777-2.216-19.7-13.915-19.7h-4.766c-6.925,0-11.4,2.433-13.828,7.589V99.09h32.508V72.62H153.7v69.7h26.639V131.207a2.168,2.168,0,0,1,4.336,0V164.9a2.168,2.168,0,0,1-4.336,0V146.99H153.7v19.532c0,21.478,5.261,27.36,24.467,27.36h7.95a9.223,9.223,0,0,1-2.546-4.627Z" transform="translate(-89.696 -71.695)" fill="url(#linear-gradient-2)"/>
      </g>
      <path id="Tracé_1502" data-name="Tracé 1502" d="M283.677,265.3l-.3.825a48.034,48.034,0,0,1-6.538,10.826c-2.685,3.41-5.222,5.708-7.377,6.669-2.454,1.095-3.914.374-3.276-2.081a33.943,33.943,0,0,1,3.2-6.673c2.19-3.884,4.453-7.9,3.853-10.713a6,6,0,0,0-6.208-5.139c-3.766,0-6.981,2.472-9.592,5.526l13.715-30.154-6.851.313s-7.629,18.081-11.829,27.76q-1.466,3.376-2.95,6.8c-3.962,6.412-9.079,12.624-13.55,14.028-2.746.86-4.974-.065-4.492-3.219.313-2.033,1.533-4.866,3.389-9.14,1.073-2.481,2.4-5.535,3.866-9.2h8.441l.769-2.715h-8l3.879-8.38h-6.338l-3.806,8.38h-4.114l-.769,2.715H232.5c-.765,1.8-1.538,3.493-2.289,5.135-2.537,5.548-4.544,9.927-3.784,13.493a7.61,7.61,0,0,0,7.455,5.934c3.988,0,7.75-2.728,11.173-6.621q-1.147,2.7-2.259,5.343l-.539,1.282h6.751l.187-.682a60.916,60.916,0,0,1,7.046-14.566c3.849-5.921,7.594-9.314,10.266-9.314,1.3,0,2.124.93,1.607,2.554a31.892,31.892,0,0,1-2.793,5.4c-2.355,3.962-5.026,8.454-4.249,12.12a6.151,6.151,0,0,0,6.052,5.065c7.715,0,16.326-14.28,18.454-19.958l.343-.912-2.233-.7Z" transform="translate(-129.816 -162.262)"/>
      <g id="Groupe_172" data-name="Groupe 172">
        <path id="Tracé_1503" data-name="Tracé 1503" d="M211.334,98.812a1.228,1.228,0,0,0,1.229-1.229V71.729a1.228,1.228,0,0,0-1.229-1.229H152.8a1.228,1.228,0,0,0-1.229,1.229v69.078a1.228,1.228,0,0,0,1.229,1.229h26.022a1.228,1.228,0,0,0,1.229-1.229v-10.8a1.242,1.242,0,1,1,2.485,0V163.7a1.242,1.242,0,1,1-2.485,0V146.1a1.228,1.228,0,0,0-1.229-1.229H152.8a1.228,1.228,0,0,0-1.229,1.229v19.223c0,21.939,5.7,28.285,25.392,28.285H186a9.926,9.926,0,0,1-1.208-1.051c-.109-.113-.217-.226-.321-.343l-.078-.091a9.188,9.188,0,0,1-2.029-4.062c-.6-2.8.169-5.8,1.542-9.253a56.829,56.829,0,0,0-5.361,5.369,32.972,32.972,0,0,0-3.619,4.8c-.5.886-.817,1.972-1.16,2.72-16.065-.643-20.349-6.625-20.349-26.374V146.72h24.793v16.986a3.093,3.093,0,0,0,6.186,0V130.012a3.093,3.093,0,1,0-6.186,0V140.2H153.416V125.186c.109-.074.217-.152.33-.235a7.517,7.517,0,0,0,2.52,1.46,9,9,0,0,0,4.275.526c1.043-.074,2.129-.3,3.249-.408.765-.07,1.338-.478,2.029-.573.778-.109,1.529-.356,2.485-.547.4-.083,1.077-.361,1.481-.43a11.312,11.312,0,0,0,1.577-.573c2.3-.739,3.684-1.451,5.769-2.176a22.107,22.107,0,0,1,7.251-.977,9.85,9.85,0,0,1,.969,3.714c.065,1.082.56,2.424.608,3.884.061,1.79.43,3.749.582,6,.178,2.624.721,5.5.938,8.667.113,1.694.126,3.215.2,5.018.087,2,.452,4.249.5,6.33.039,1.69-.213,3.375-.213,5.087,0,1.273.2,2.576.213,3.845,0,.235,0,.46,0,.691h2.059l3.3-7.259a1.916,1.916,0,0,1,1.742-1.121h7.954a.785.785,0,0,1,.712,1.116l-3.362,7.264H206.9a.931.931,0,0,1,.895,1.186l-1.143,4.04a1.633,1.633,0,0,1-1.568,1.186h-7.359c-1.29,3.176-2.459,5.869-3.415,8.08a71.35,71.35,0,0,0-3.011,7.581,7.711,7.711,0,0,0-.3,1.538c-.035.6.282,1.034,1.277.934,3.389-.339,8.545-5.539,13.324-13.263q1.466-3.382,2.919-6.725c.652-1.5,1.394-3.228,2.19-5.074h0v-.013q.456-1.049.925-2.142h0q.456-1.069.925-2.163v-38.4c0-13.063-2.428-20.627-14.84-20.627h-4.766c-5.873,0-10.126,1.72-12.9,5.239V98.82h31.274Zm-36.014,5.417s-1.885.934-4.527,2.085c-.513.222-1.329.456-1.864.691-.4.174-1.121.626-1.5.786-1.316.565-1.916.791-2.937,1.264a9.286,9.286,0,0,1-1.937.917,2.147,2.147,0,0,0-1.6.878,4.557,4.557,0,0,0-1.255.382,14.8,14.8,0,0,0-2.02-2.15c-.621-.621-1.59-.478-2.7-.43-.447-.378-.977-.821-1.56-1.308v-35h57.3V93.307c-.365-.087-.673-.2-1.13-.269-.734-.117-1.8-.156-2.589-.252-1.082-.135-2.359-.487-3.367-.591-1.451-.148-1.234-1.064-1-2.055a29.006,29.006,0,0,1,1.1-3.775c.587-1.416.369-1.829-1.147-1.768a11.329,11.329,0,0,0-4.11.964,18.751,18.751,0,0,0-4.045,2.224c-.934.712-1.8,1.66-2.454,2.255a11.352,11.352,0,0,1-1.173-1.6,9.34,9.34,0,0,1-1.26-2.32,20.11,20.11,0,0,0-3.432-7.159,17.615,17.615,0,0,0-4.409-3.871,10.362,10.362,0,0,0-7.772-1.39c-1.295.239-1.864.474-3.128.7-.569.1-.821.6-1.8.7-1.025.1-1.581.63-2.654.725a10.9,10.9,0,0,0-2.906,1.2c-.678.3-.969.222-1.642.474-.556.209-1.455.791-1.864.947-.487.187-1.138.647-1.547.76-.947.252-1.173.5-1.547.539-1.012.1-1.994.191-1.738,1.642a25.862,25.862,0,0,1,.156,2.75c.065,1.1.017,2.468.07,3.819a20.967,20.967,0,0,0,.321,2.789,16,16,0,0,0,.608,2.62,5.779,5.779,0,0,0,3.015,3.6,13.306,13.306,0,0,1-.513-2.142,16.466,16.466,0,0,1-.321-3.228,13.111,13.111,0,0,0,1.025,1.733,9.635,9.635,0,0,0,1.468,1.616,4.538,4.538,0,0,0,2.415,1.39A7.434,7.434,0,0,1,162,99.806c-.321.517-.091.843.617.843a20.089,20.089,0,0,1,2.572-.091.878.878,0,0,1,.717.478c.148.235.5.382,1.147.308a1.152,1.152,0,0,0,.573,1.1c.339.339.317,1.2.513,2.029.308,1.312,2.042,1.347,4.014.287a16.137,16.137,0,0,0,3.984-3.558l1.147.074-1.955,2.958Z" transform="translate(-87.57 -69.57)"/>
        <path id="Tracé_1504" data-name="Tracé 1504" d="M39.856,68.36H29.642C9.945,68.36,4.25,74.7,4.25,96.646v13a1.228,1.228,0,0,0,1.229,1.229H31.5a1.228,1.228,0,0,0,1.229-1.229V98.262a1.242,1.242,0,0,1,2.485,0v3.319c0,11.79-3.706,16.669-13.511,26.648C7.517,142.769,4.25,150.575,4.25,170v20.244a1.228,1.228,0,0,0,1.229,1.229H64.014a1.228,1.228,0,0,0,1.229-1.229V164.39a1.228,1.228,0,0,0-1.229-1.229h-28.9c1.342-6.569,2.772-10.948,9.944-18.276C59.4,130.2,65.243,122.307,65.243,103.114V96.646c0-11.391-1.56-18.024-5.217-22.182C56.26,70.185,50.225,68.36,39.856,68.36ZM6.1,170c0-18.811,3.167-26.378,16.938-40.476.6-.6,1.164-1.19,1.716-1.759-.052.135-.109.265-.161.4a12.353,12.353,0,0,0-.465,1.377,26.715,26.715,0,0,0-1.2,5.53c-.1,1.538-.078,3.61-.074,4.987a17.292,17.292,0,0,0,.443,5.235c-.1,2.685-.282,6.429-.222,9.927.035,1.846-.017,3.284.1,4.84.056.778.356,1.977.443,2.628a27.2,27.2,0,0,0,1.143,5.409c.261.834-.33,1.325-.825,2.424a3.115,3.115,0,0,0,.052,1.924,1.1,1.1,0,0,0-.126,1.468,39.274,39.274,0,0,0-.465,3.936c-.135,1.238-.321,2.285-.474,4.427-.074.986-.178,2.077-.256,3.319-.078,1.3-.3,2.633-.43,4.023H6.1V169.994Zm57.3,19.627H45.377c.317-2.546.465-5,.752-7.533.269-2.363.83-3.1.634-5.552a5.34,5.34,0,0,0,.634-3.4,2.021,2.021,0,0,0,.539-2.311,1.374,1.374,0,0,0,.369-1.959,1.48,1.48,0,0,1-.335-1.2c.039-.96.035-1.82-.013-2.663H63.393v24.623ZM43.735,143.59c-.2.209-.4.413-.6.617-.191-.817-.374-1.6-.565-2.224-.547-1.825-1.2-3.606-1.842-5.209a34.741,34.741,0,0,0-2.016-3.81c-.534-.977-1.025-2.172-1.5-2.976a13.861,13.861,0,0,0-2.315-3.241,7.431,7.431,0,0,0-.825-1.334c.074-.93.1-1.964.243-2.763a17.3,17.3,0,0,0,7.264,1.09c2.22-.213,4.2-2.281,3.571-3.3.878,0,.573-1.129,1.36-1.525.739-.369,1.438-.521,1.182-1.051a6.417,6.417,0,0,1-.791-2.3,48.376,48.376,0,0,0,6.9,2.724,47.184,47.184,0,0,0,5.065.991,3.5,3.5,0,0,0,2.363-.117c-2.78,8.563-8.371,15.079-17.507,24.432Zm9.909-42.639c1.859,1.021,5.587,6.186,9.166,11.3a43.305,43.305,0,0,1-1.047,5.139,1.948,1.948,0,0,0-.53-.582c-.543-.4-1.395-1.138-1.99-1.594-1.46-1.116-3.032-2.389-4.3-3.449-1.568-1.312-2.837-2.2-3.089-2.437.065-.365.4-1.486.6-2.176.117-.4.33-.721.465-1.108a11.928,11.928,0,0,0,.382-1.564,11.759,11.759,0,0,0,.339-3.536Zm9.753-.7a73.483,73.483,0,0,1-6.447-6.738,9.137,9.137,0,0,0-4.005-2.963,20.942,20.942,0,0,0-4.405-1.242c-2.572-.391-4.887-.873-6.881-1.051-1.017-.091-1.742-.1-2.507-.122-1.338-.213-3.536-.378-4.635-.443-1.242-.07-1.481.274-2.15,1.16-2.007-.213-2.6-.261-3.223,1.195a11.374,11.374,0,0,0-.335,3.636,11.2,11.2,0,0,0-.99,2c-.956-.1-1.933-.287-2.985-.478-1.1-.2-2.124-.586-3.866-.943a28.591,28.591,0,0,0-6.686-.734c-2.494.117-2.324,1.047-1.564,2.016A20.687,20.687,0,0,0,14.2,97.388c.252.261.869.83,1.147,1.1.569.552,1.177,1.329,1.79,1.864a31.35,31.35,0,0,0,2.52,1.977c1.182.838,2.35,1.573,3.432,2.216a4.875,4.875,0,0,0-3.189,2.928,6.421,6.421,0,0,1,3.2-1.338,8.434,8.434,0,0,0-1.955,2.9H6.1V96.65c0-21,4.84-26.439,23.546-26.439H39.856c9.788,0,15.4,1.638,18.785,5.478C61.977,79.477,63.4,85.746,63.4,96.65v3.61Z" transform="translate(-4.25 -68.36)"/>
      </g>
    </g>
  </g>
</svg>
