<svg id="twitter" xmlns="http://www.w3.org/2000/svg" width="21.155" height="17.188" viewBox="0 0 21.155 17.188">
  <g id="Groupe_50" data-name="Groupe 50">
    <path id="Tracé_344" data-name="Tracé 344" d="M21.155,50.035a9.043,9.043,0,0,1-2.5.685,4.313,4.313,0,0,0,1.908-2.4,8.667,8.667,0,0,1-2.75,1.05,4.337,4.337,0,0,0-7.5,2.966,4.466,4.466,0,0,0,.1.989,12.276,12.276,0,0,1-8.939-4.536,4.338,4.338,0,0,0,1.333,5.8,4.283,4.283,0,0,1-1.96-.534V54.1a4.357,4.357,0,0,0,3.475,4.261,4.329,4.329,0,0,1-1.137.143,3.835,3.835,0,0,1-.821-.074,4.378,4.378,0,0,0,4.053,3.021A8.714,8.714,0,0,1,1.038,63.3,8.123,8.123,0,0,1,0,63.242a12.21,12.21,0,0,0,6.653,1.946A12.259,12.259,0,0,0,19,52.847c0-.192-.007-.377-.016-.561A8.652,8.652,0,0,0,21.155,50.035Z" transform="translate(0 -48)" fill="#fff"/>
  </g>
</svg>
