<svg xmlns="http://www.w3.org/2000/svg" width="26.444" height="18.515" viewBox="0 0 26.444 18.515">
  <path id="youtube" d="M25.9-3.185a3.313,3.313,0,0,0-2.331-2.331c-2.069-.566-10.347-.566-10.347-.566s-8.277,0-10.346.545A3.38,3.38,0,0,0,.545-3.185,34.908,34.908,0,0,0,0,3.176a34.78,34.78,0,0,0,.545,6.36,3.313,3.313,0,0,0,2.331,2.331c2.091.566,10.347.566,10.347.566s8.277,0,10.346-.545A3.313,3.313,0,0,0,25.9,9.558a34.919,34.919,0,0,0,.544-6.36A33.137,33.137,0,0,0,25.9-3.185ZM10.587,7.14V-.789L17.47,3.176Zm0,0" transform="translate(-0.001 6.082)" fill="#fff"/>
</svg>
